<svg xmlns="http://www.w3.org/2000/svg" width="600" height="600" viewBox="0 0 600 600" version="1.1"><path d="M 53.229 1.521 C 49.780 2.270, 43.048 4.822, 38.270 7.191 C 31.233 10.681, 27.865 13.218, 20.541 20.541 C 13.229 27.854, 10.680 31.237, 7.210 38.234 C -0.534 53.850, 0.035 33.109, 0.035 300 C 0.035 566.891, -0.534 546.150, 7.210 561.766 C 13.300 574.047, 25.953 586.700, 38.234 592.790 C 52.705 599.966, 52.780 599.973, 121 599.907 C 164.688 599.864, 182.392 599.522, 184.709 598.674 C 192.039 595.993, 200 584.448, 200 576.500 C 200 572.259, 196.026 563.264, 192.707 559.990 C 185.783 553.163, 189.604 553.551, 124 553 L 64.500 552.500 59.907 549.752 C 54.787 546.689, 53.432 545.298, 49.922 539.500 L 47.500 535.500 47.500 300.430 L 47.500 65.361 49.881 60.732 C 52.592 55.461, 54.811 53.186, 60.500 49.848 L 64.500 47.500 172.750 47.228 L 281 46.957 281.015 87.228 C 281.030 127.586, 281.631 135.866, 284.973 141.742 C 285.523 142.709, 287.106 145.975, 288.490 149 C 295.413 164.123, 309.334 176.565, 327.500 183.865 L 336.500 187.481 379 187.788 L 421.500 188.095 421.199 203.136 C 420.958 215.198, 421.234 219.199, 422.596 223.338 C 425.471 232.074, 430.152 236.516, 439.621 239.494 C 444.967 241.176, 445.470 241.174, 451.113 239.466 C 458.183 237.325, 464.559 232.181, 467.114 226.556 C 468.777 222.893, 468.958 219.445, 468.972 191 C 468.983 171.494, 468.577 157.977, 467.907 155.500 C 466.976 152.055, 456.469 141.153, 392.163 76.906 C 327.462 12.265, 316.951 2.158, 313.384 1.156 C 306.903 -0.664, 61.707 -0.320, 53.229 1.521 M 329.026 102.302 C 329.618 126.190, 330.094 128.154, 336.745 134.156 C 342.414 139.271, 347.703 140.192, 369.205 139.813 L 386.910 139.500 357.705 110.302 L 328.500 81.103 329.026 102.302 M 496.930 213.304 C 490.223 215.551, 489.206 216.506, 475.420 233.500 C 471.600 238.209, 436.060 282.908, 430.500 289.996 C 427.750 293.502, 422.076 300.775, 417.892 306.157 C 413.707 311.540, 408.847 317.644, 407.092 319.722 C 402.180 325.538, 397.072 331.920, 390.500 340.454 C 387.200 344.739, 381.566 351.903, 377.980 356.373 C 374.393 360.843, 370.568 365.688, 369.480 367.140 C 368.391 368.592, 362.323 376.242, 355.995 384.140 C 349.668 392.038, 343.143 400.218, 341.495 402.317 C 335.429 410.048, 332.324 413.935, 324.500 423.589 C 320.100 429.018, 315.825 434.433, 315 435.621 C 314.175 436.810, 309.715 442.443, 305.089 448.141 C 283.181 475.121, 275.200 495.685, 273.514 529.500 C 273.185 536.100, 272.711 542.850, 272.460 544.500 C 271.909 548.123, 271.399 552.972, 270.022 567.682 C 269.051 578.060, 269.125 579.246, 271.058 584.182 C 277.206 599.885, 289.306 603.454, 311.721 596.175 C 318.199 594.071, 328.900 590.649, 335.500 588.572 C 358.291 581.398, 370.224 576.893, 373.079 574.386 C 373.947 573.624, 375.156 573, 375.766 573 C 377.627 573, 390.086 564.096, 397.669 557.346 C 403.569 552.095, 417.929 535.146, 435.512 512.683 C 441.210 505.403, 444.540 501.233, 452.500 491.410 C 456.900 485.980, 461.291 480.404, 462.258 479.019 C 463.225 477.633, 465.700 474.444, 467.758 471.931 C 476.524 461.227, 487.646 447.389, 489.500 444.880 C 490.600 443.391, 495.096 437.747, 499.492 432.337 C 503.887 426.926, 508.162 421.654, 508.992 420.619 C 509.821 419.585, 512.229 416.697, 514.341 414.203 C 516.454 411.708, 519.939 407.380, 522.086 404.584 C 524.232 401.788, 527.794 397.250, 530 394.500 C 535.221 387.992, 540.716 381.058, 547.038 373 C 549.842 369.425, 554.019 364.101, 556.319 361.169 C 558.618 358.237, 561.850 354.128, 563.500 352.038 C 565.150 349.948, 569.393 344.472, 572.928 339.869 C 576.463 335.266, 583.488 326.325, 588.538 320 C 593.589 313.675, 598.234 307.517, 598.860 306.316 C 600.300 303.557, 600.351 288.057, 598.933 284.315 C 598.347 282.767, 596.884 280.426, 595.683 279.113 C 593.971 277.240, 547.316 239.471, 531.311 227 C 529.546 225.625, 525.433 222.407, 522.170 219.849 C 518.907 217.290, 515.374 214.735, 514.319 214.171 C 511.216 212.510, 500.841 211.993, 496.930 213.304 M 82.201 226.261 C 77.547 227.751, 70.649 234.890, 69.205 239.711 C 67.425 245.651, 67.753 253.859, 69.964 258.730 C 72.139 263.520, 77.766 268.930, 82.388 270.674 C 84.716 271.552, 122.994 271.867, 234.282 271.924 C 398.565 272.008, 386.737 272.469, 393.872 265.699 C 398.686 261.132, 400.956 255.621, 400.956 248.500 C 400.956 241.379, 398.686 235.868, 393.872 231.301 C 386.735 224.529, 398.575 224.989, 234.282 225.102 C 132.792 225.172, 84.451 225.540, 82.201 226.261 M 501 279.649 C 497.425 284.374, 492.025 291.283, 489 295.001 C 485.975 298.720, 480.125 306.145, 476 311.501 C 471.875 316.858, 465.800 324.530, 462.500 328.552 C 459.200 332.573, 453.125 340.235, 449 345.579 C 444.875 350.922, 439.925 357.203, 438 359.535 C 432.216 366.543, 415.643 387.067, 413.500 389.877 C 412.400 391.319, 405.875 399.543, 399 408.153 C 329.664 494.984, 328.714 496.281, 325.547 508.467 C 323.989 514.461, 320.569 540.902, 321.262 541.595 C 321.688 542.021, 323.584 541.437, 338 536.439 C 357.262 529.761, 364.354 524.140, 382.527 501.148 C 387.462 494.905, 393.975 486.751, 397 483.028 C 404.536 473.754, 428.048 444.316, 430.480 441.110 C 432.802 438.049, 446.663 420.581, 449.527 417.107 C 450.612 415.791, 452.656 413.316, 454.069 411.607 C 456.319 408.884, 471.966 388.736, 479 379.502 C 480.375 377.697, 485.446 371.334, 490.270 365.360 C 495.093 359.387, 500.943 352.103, 503.270 349.173 C 505.596 346.243, 509.975 340.796, 513 337.068 C 516.025 333.340, 520.300 327.903, 522.500 324.986 C 524.700 322.069, 527.871 318.066, 529.546 316.091 C 531.222 314.116, 534.998 309.391, 537.938 305.591 C 542.346 299.894, 543.035 298.490, 541.867 297.591 C 541.087 296.991, 536.015 292.900, 530.596 288.500 C 525.177 284.100, 519.563 279.624, 518.122 278.554 C 516.680 277.483, 514.022 275.346, 512.215 273.804 C 510.409 272.262, 508.609 271.013, 508.215 271.029 C 507.822 271.045, 504.575 274.924, 501 279.649 M 81.500 320.476 C 75.637 323.187, 71.715 327.041, 69.553 332.218 C 67.419 337.326, 67.586 347.491, 69.886 352.556 C 72.110 357.452, 79.093 363.662, 83.955 365.067 C 86.316 365.750, 129.784 365.993, 214.152 365.796 L 340.804 365.500 345.152 362.379 C 350.538 358.514, 353.486 354.308, 355.674 347.365 C 357.262 342.328, 357.262 341.672, 355.676 336.641 C 353.161 328.663, 349.165 323.786, 342.592 320.674 L 336.945 318 211.723 318.082 L 86.500 318.164 81.500 320.476 M 82.422 413.418 C 77.675 415.486, 71.879 421.058, 69.865 425.491 C 68.701 428.053, 68.044 431.847, 68.044 436 C 68.044 446.364, 72.077 452.934, 81.485 457.898 C 85.441 459.985, 86.069 460, 167.500 460 C 248.931 460, 249.559 459.985, 253.515 457.898 C 255.707 456.741, 258.796 454.604, 260.379 453.148 C 264.130 449.699, 268 440.990, 268 436 C 268 427.430, 260.689 416.857, 252.355 413.375 C 247.554 411.369, 87.034 411.410, 82.422 413.418" stroke="none" fill="#FFFFFF" fill-rule="evenodd"/></svg>